<svg width="19" height="19" viewBox="0 0 19 19" fill="none" xmlns="http://www.w3.org/2000/svg">
<g clip-path="url(#clip0_438_632)">
<path d="M13.0625 9.5C13.0625 10.3238 13.018 11.118 12.94 11.875H6.05996C5.97832 11.118 5.9375 10.3238 5.9375 9.5C5.9375 8.67617 5.98203 7.88203 6.05996 7.125H12.94C13.0217 7.88203 13.0625 8.67617 13.0625 9.5ZM14.1312 7.125H18.6994C18.8961 7.88574 19 8.67988 19 9.5C19 10.3201 18.8961 11.1143 18.6994 11.875H14.1312C14.2092 11.1105 14.25 10.3164 14.25 9.5C14.25 8.68359 14.2092 7.88945 14.1312 7.125ZM18.3098 5.9375H13.9791C13.608 3.56621 12.8732 1.58086 11.927 0.311719C14.8326 1.07988 17.1965 3.1877 18.3061 5.9375H18.3098ZM12.7768 5.9375H6.22324C6.44961 4.58672 6.79844 3.3918 7.2252 2.42324C7.61484 1.54746 8.04902 0.912891 8.46836 0.512109C8.88398 0.11875 9.2291 0 9.5 0C9.7709 0 10.116 0.11875 10.5316 0.512109C10.951 0.912891 11.3852 1.54746 11.7748 2.42324C12.2053 3.38809 12.5504 4.58301 12.7768 5.9375ZM5.0209 5.9375H0.690234C1.80352 3.1877 4.16367 1.07988 7.07305 0.311719C6.12676 1.58086 5.39199 3.56621 5.0209 5.9375ZM0.300586 7.125H4.86875C4.79082 7.88945 4.75 8.68359 4.75 9.5C4.75 10.3164 4.79082 11.1105 4.86875 11.875H0.300586C0.103906 11.1143 0 10.3201 0 9.5C0 8.67988 0.103906 7.88574 0.300586 7.125ZM7.2252 16.573C6.79473 15.6082 6.44961 14.4133 6.22324 13.0625H12.7768C12.5504 14.4133 12.2016 15.6082 11.7748 16.573C11.3852 17.4488 10.951 18.0834 10.5316 18.4842C10.116 18.8813 9.7709 19 9.5 19C9.2291 19 8.88398 18.8813 8.46836 18.4879C8.04902 18.0871 7.61484 17.4525 7.2252 16.5768V16.573ZM5.0209 13.0625C5.39199 15.4338 6.12676 17.4191 7.07305 18.6883C4.16367 17.9201 1.80352 15.8123 0.690234 13.0625H5.0209ZM18.3098 13.0625C17.1965 15.8123 14.8363 17.9201 11.9307 18.6883C12.877 17.4191 13.608 15.4338 13.9828 13.0625H18.3098Z" fill="black"/>
</g>
<defs>
<clipPath id="clip0_438_632">
<rect width="19" height="19" fill="white"/>
</clipPath>
</defs>
</svg>
