<svg width="18" height="21" viewBox="0 0 18 21" fill="none" xmlns="http://www.w3.org/2000/svg">
<g clip-path="url(#clip0_438_628)">
<path d="M9.0041 5.78318C6.44874 5.78318 4.38758 7.88728 4.38758 10.4959C4.38758 13.1045 6.44874 15.2086 9.0041 15.2086C11.5595 15.2086 13.6206 13.1045 13.6206 10.4959C13.6206 7.88728 11.5595 5.78318 9.0041 5.78318ZM9.0041 13.5597C7.35276 13.5597 6.00276 12.1857 6.00276 10.4959C6.00276 8.80603 7.34874 7.43201 9.0041 7.43201C10.6595 7.43201 12.0054 8.80603 12.0054 10.4959C12.0054 12.1857 10.6554 13.5597 9.0041 13.5597ZM14.8862 5.5904C14.8862 6.20154 14.4041 6.68962 13.8095 6.68962C13.2108 6.68962 12.7327 6.19744 12.7327 5.5904C12.7327 4.98337 13.2148 4.49119 13.8095 4.49119C14.4041 4.49119 14.8862 4.98337 14.8862 5.5904ZM17.9438 6.70603C17.8755 5.23357 17.5461 3.92927 16.4894 2.85466C15.4367 1.78005 14.159 1.44373 12.7166 1.3699C11.23 1.28376 6.77419 1.28376 5.28758 1.3699C3.84919 1.43962 2.57151 1.77595 1.51482 2.85056C0.45812 3.92517 0.132673 5.22947 0.0603516 6.70193C-0.0240234 8.21951 -0.0240234 12.7681 0.0603516 14.2857C0.128655 15.7582 0.45812 17.0625 1.51482 18.1371C2.57151 19.2117 3.84517 19.548 5.28758 19.6218C6.77419 19.708 11.23 19.708 12.7166 19.6218C14.159 19.5521 15.4367 19.2158 16.4894 18.1371C17.542 17.0625 17.8715 15.7582 17.9438 14.2857C18.0282 12.7681 18.0282 8.22361 17.9438 6.70603ZM16.0233 15.914C15.7099 16.7179 15.1032 17.3373 14.3117 17.6613C13.1264 18.1412 10.3139 18.0304 9.0041 18.0304C7.69428 18.0304 4.87776 18.1371 3.69651 17.6613C2.90901 17.3414 2.30232 16.722 1.98491 15.914C1.51482 14.7041 1.6233 11.833 1.6233 10.4959C1.6233 9.15876 1.51883 6.28357 1.98491 5.07771C2.2983 4.2738 2.90499 3.65447 3.69651 3.33044C4.88178 2.85056 7.69428 2.9613 9.0041 2.9613C10.3139 2.9613 13.1304 2.85466 14.3117 3.33044C15.0992 3.65037 15.7059 4.2697 16.0233 5.07771C16.4934 6.28767 16.3849 9.15876 16.3849 10.4959C16.3849 11.833 16.4934 14.7082 16.0233 15.914Z" fill="black"/>
</g>
<defs>
<clipPath id="clip0_438_628">
<rect width="18" height="21" fill="white"/>
</clipPath>
</defs>
</svg>
