<svg width="66" height="44" viewBox="0 0 66 44" fill="none" xmlns="http://www.w3.org/2000/svg">
<g style="mix-blend-mode:hard-light">
<path d="M12.1944 1.61504C7.71101 0.189212 3.0249 3.68845 1.57578 6.92054C1.56854 6.9336 -0.521897 10.7102 0.123764 15.1634C0.212072 15.7746 0.362629 16.7329 1.05317 17.6941C1.61921 18.4811 2.30396 18.9327 2.73681 19.1708C3.32601 19.3494 4.25397 19.5309 5.23549 19.226C6.54418 18.818 7.07693 17.8147 9.39465 14.7989C11.2506 12.3843 11.9527 11.6699 12.8777 11.6656C13.603 11.6612 14.198 12.0939 14.5816 12.4496C15.2461 13.3005 15.4242 14.0265 15.4734 14.4984C15.608 15.7529 14.9855 16.4556 13.1354 20.2917C12.7967 20.9945 12.8589 20.8899 12.5013 21.629C11.4981 23.7024 10.7062 25.1297 10.479 25.5522C9.16447 27.9929 7.77905 30.5455 7.80221 33.6919C7.82971 37.3407 9.69142 39.9034 10.0142 40.3347C11.252 41.9899 12.6953 42.9308 13.5929 43.4201C13.9606 43.5435 14.806 43.8005 15.9338 43.8804C15.9338 43.8804 17.9359 44.0125 19.9728 43.2647C21.7143 42.6259 25.2698 39.2776 30.9287 20.6373C30.9287 20.6373 32.9005 14.1412 34.7781 8.23892C34.7882 8.20698 34.7984 8.17504 34.7984 8.17504C35.0256 7.46357 35.2023 6.94086 35.2906 6.67661C35.5425 5.92594 35.6583 5.54697 35.777 5.20141C35.9189 4.7934 36.1331 4.19664 36.4227 3.47211C36.6152 2.93343 37.2116 2.67208 37.698 2.86809C38.1367 3.04523 38.3886 3.55778 38.2511 4.04999C38.2221 4.2736 38.1714 4.62497 38.0875 5.0533C37.976 5.61812 37.8616 6.03919 37.8182 6.19745C35.1588 15.8429 34.7781 17.0408 34.7781 17.0408C31.7742 26.4931 28.569 36.5813 32.8744 41.3757C33.6634 42.2542 35.2081 43.5145 38.3481 43.9994C39.402 44.0096 42.6462 43.9051 45.2013 41.5979C46.6143 40.3231 47.5133 38.4268 47.9229 37.6021C48.4238 36.5944 48.7467 35.7087 48.9522 35.0713C52.0387 25.4578 55.3698 15.9242 58.546 6.3383C58.8673 5.36983 59.7736 2.70838 60.9158 2.72725C61.7772 2.74032 62.64 4.27215 62.8745 4.8268C63.1466 5.47002 63.2538 6.20617 63.2538 6.20617C63.2538 6.20617 63.2784 6.39057 63.2943 6.57642C63.4738 8.63531 63.8488 23.0011 64.1412 42.7275C64.3859 43.137 64.8433 43.349 65.2704 43.2604C65.7597 43.1602 65.9768 42.713 66 42.6607C66 42.6389 65.9957 42.5838 65.9942 42.5605C65.4369 31.604 65.2805 9.02589 64.658 5.22899C64.6117 4.94876 64.5494 4.68015 64.5393 4.63949C64.2454 3.41258 63.8936 1.97949 62.6168 0.99941C61.712 0.305369 60.771 0.109353 60.2716 0.0454667C60.0472 0.0817659 59.7099 0.160173 59.3422 0.344573C57.5543 1.24189 56.2644 2.88552 52.9912 8.72243C52.8899 8.90247 52.8103 9.04622 52.7929 9.07816C50.1857 13.6533 45.9469 21.4025 40.3082 29.0877C39.2746 30.4961 37.0987 33.3957 34.9504 33.207C34.7216 33.1866 33.7821 33.1126 33.274 32.4287C32.7658 31.7448 32.9092 30.833 32.9859 30.409C33.756 26.1548 35.8595 19.0227 36.2909 17.5315C36.4284 17.0582 36.4661 16.9101 36.8859 15.4479C37.5214 13.2351 37.8819 12.0097 38.4697 9.96676C39.1978 7.43744 39.5236 6.25118 39.842 4.59593C40.2763 2.33812 40.3212 1.14896 39.6234 0.513001C39.2601 0.181952 38.8287 0.129681 38.2959 0.046919C36.537 -0.227503 35.1371 0.778711 34.7231 1.07636C33.7271 1.79219 33.2016 2.63287 33.0655 2.84922C31.8176 4.83261 28.2462 10.0394 23.3574 17.1613C22.3354 18.7367 15.9844 28.5113 14.5947 29.9095C14.3963 30.1085 13.8549 30.6544 13.3989 30.5121C13.0601 30.4061 12.9183 29.9691 12.8676 29.8123C12.1944 27.7403 15.8339 19.8924 16.2204 19.059C16.2204 19.059 16.8197 17.7493 17.2179 16.5485C18.3152 13.238 18.1328 9.91304 18.1313 9.90288C17.8983 8.03565 16.4984 2.9857 12.1915 1.61504L12.1944 1.61504Z" fill="black"/>
</g>
</svg>
