<svg width="25" height="22" viewBox="0 0 25 22" fill="none" xmlns="http://www.w3.org/2000/svg">
<path d="M23.8583 5.33242C23.5849 4.31406 22.7819 3.51484 21.7619 3.24414C19.913 2.75 12.4998 2.75 12.4998 2.75C12.4998 2.75 5.08659 2.75 3.23763 3.24414C2.21766 3.51484 1.41471 4.31406 1.14128 5.33242C0.646484 7.17578 0.646484 11.0172 0.646484 11.0172C0.646484 11.0172 0.646484 14.8586 1.14128 16.702C1.41471 17.7203 2.21766 18.4852 3.23763 18.7559C5.08659 19.25 12.4998 19.25 12.4998 19.25C12.4998 19.25 19.913 19.25 21.7619 18.7559C22.7819 18.4852 23.5849 17.716 23.8583 16.702C24.3531 14.8586 24.3531 11.0172 24.3531 11.0172C24.3531 11.0172 24.3531 7.17578 23.8583 5.33242ZM10.0779 14.5063V7.52812L16.2715 11.0172L10.0779 14.5063Z" fill="black"/>
</svg>
